<svg xmlns="http://www.w3.org/2000/svg" version="1.1" xmlns:xlink="http://www.w3.org/1999/xlink" xmlns:svgjs="http://svgjs.dev/svgjs" width="1000" height="623" viewBox="0 0 1000 623"><g transform="matrix(1,0,0,1,-0.6060606060606233,0.2522267206477409)"><svg viewBox="0 0 396 247" data-background-color="#ffffff" preserveAspectRatio="xMidYMid meet" height="623" width="1000" xmlns="http://www.w3.org/2000/svg" xmlns:xlink="http://www.w3.org/1999/xlink"><g id="tight-bounds" transform="matrix(1,0,0,1,0.2400000000000091,-0.09999999999999432)"><svg viewBox="0 0 395.52 247.2" height="247.2" width="395.52"><g><svg></svg></g><g><svg viewBox="0 0 395.52 247.2" height="247.2" width="395.52"><g transform="matrix(1,0,0,1,75.54432,94.52131445391169)"><svg viewBox="0 0 244.43135999999998 58.15737109217661" height="58.15737109217661" width="244.43135999999998"><g><svg viewBox="0 0 244.43135999999998 58.15737109217661" height="58.15737109217661" width="244.43135999999998"><g><svg viewBox="0 0 244.43135999999998 58.15737109217661" height="58.15737109217661" width="244.43135999999998"><g><svg viewBox="0 0 244.43135999999998 58.15737109217661" height="58.15737109217661" width="244.43135999999998"><g id="textblocktransform"><svg viewBox="0 0 244.43135999999998 58.15737109217661" height="58.15737109217661" width="244.43135999999998" id="textblock"><g><svg viewBox="0 0 244.43135999999998 58.15737109217661" height="58.15737109217661" width="244.43135999999998"><g transform="matrix(1,0,0,1,0,0)"><svg width="244.43135999999998" viewBox="0.5600000023841858 -35.38999938964844 195.77999877929688 46.59000015258789" height="58.15737109217661" data-palette-color="#202046"><path d="M6.52-22.78L6.52-7.13Q6.52-4.27 7.52-2.91 8.52-1.54 10.67-1.54 12.82-1.54 14.41-1.92L14.41-1.92 14.41-0.1Q12.82 0.46 10.62 0.46L10.62 0.46Q7.36 0.46 5.79-1.31 4.22-3.08 4.22-6.8L4.22-6.8 4.22-22.78 0.56-22.78 0.56-24.09 4.22-25.13 5.36-30.71 6.52-30.71 6.52-24.72 13.78-24.72 13.78-22.78 6.52-22.78ZM29.47-25.2L29.47-25.2Q31.06-25.2 32.83-24.9L32.83-24.9 32.4-22.72Q30.86-23.1 29.19-23.1L29.19-23.1Q26.01-23.1 24-20.41 21.99-17.72 21.99-13.65L21.99-13.65 21.99 0 19.74 0 19.74-24.72 21.64-24.72 21.86-20.27 22.04-20.27Q23.53-22.98 25.28-24.09L25.28-24.09Q27.05-25.2 29.47-25.2ZM53.58-16.46L53.58 0 51.94 0 51.36-3.92 51.18-3.92Q49.31-1.52 47.37-0.53 45.42 0.46 42.69 0.46L42.69 0.46Q39.07 0.46 37.04-1.42 35.01-3.29 35.01-6.57L35.01-6.57Q35.01-10.21 38.04-12.21 41.07-14.21 46.76-14.31L46.76-14.31 51.46-14.43 51.46-16.08Q51.46-19.67 50-21.44 48.53-23.21 45.24-23.21 41.96-23.21 38.29-21.28L38.29-21.28 37.43-23.26Q41.53-25.15 45.56-25.15 49.59-25.15 51.59-23.03 53.58-20.9 53.58-16.46L53.58-16.46ZM37.41-6.47L37.41-6.47Q37.41-4.17 38.83-2.88 40.26-1.59 42.84-1.59L42.84-1.59Q46.76-1.59 49.06-3.85 51.36-6.12 51.36-10.14L51.36-10.14 51.36-12.59 47.04-12.39Q41.83-12.16 39.62-10.78 37.41-9.4 37.41-6.47ZM81.06-16.18L81.06 0 78.83 0 78.83-16.03Q78.83-19.74 77.28-21.45 75.73-23.15 72.39-23.15L72.39-23.15Q67.94-23.15 65.89-20.9 63.84-18.66 63.84-13.65L63.84-13.65 63.84 0 61.6 0 61.6-24.72 63.49-24.72 63.92-21.33 64.07-21.33Q66.45-25.2 72.64-25.2L72.64-25.2Q81.06-25.2 81.06-16.18L81.06-16.18ZM98.26-23.15Q94.15-23.15 92.08-20.34 90.01-17.52 90.01-12.2 90.01-6.88 92.03-4.21 94.05-1.54 97.92-1.54L97.92-1.54Q102.39-1.54 104.33-4.01 106.26-6.47 106.26-12.36L106.26-12.36 106.26-12.61Q106.26-18.2 104.31-20.68 102.37-23.15 98.26-23.15ZM97.87 0.46L97.87 0.46Q92.96 0.46 90.3-2.79 87.63-6.04 87.63-12.21 87.63-18.38 90.31-21.79 92.99-25.2 97.99-25.2L97.99-25.2Q103.38-25.2 106.03-21.26L106.03-21.26 106.18-21.26 106.59-24.72 108.48-24.72 108.48 11.2 106.26 11.2 106.26 1.77Q106.26-1.01 106.41-3.87L106.41-3.87 106.26-3.87Q103.58 0.46 97.87 0.46ZM116.52-8.57L116.52-24.72 118.74-24.72 118.74-8.72Q118.74-5.01 120.3-3.3 121.85-1.59 125.19-1.59L125.19-1.59Q129.61-1.59 131.69-3.84 133.76-6.09 133.76-11.07L133.76-11.07 133.76-24.72 135.98-24.72 135.98 0 134.09 0 133.68-3.41 133.53-3.41Q131.16 0.46 124.96 0.46L124.96 0.46Q116.52 0.46 116.52-8.57L116.52-8.57ZM144.27-24.72L146.52-24.72 146.52 0 144.27 0 144.27-24.72ZM145.38-29.4L145.38-29.4Q143.94-29.4 143.94-31.58 143.94-33.77 145.38-33.77L145.38-33.77Q146.09-33.77 146.48-33.2 146.88-32.63 146.88-31.61 146.88-30.59 146.48-29.99 146.09-29.4 145.38-29.4ZM154.81-35.39L157.06-35.39 157.06 0 154.81 0 154.81-35.39ZM165.35-35.39L167.6-35.39 167.6 0 165.35 0 165.35-35.39ZM191.69-20.32L191.69-20.32Q189.46-23.15 185.35-23.15 181.25-23.15 179.03-20.35 176.82-17.54 176.82-12.41 176.82-7.28 179.06-4.44 181.3-1.59 185.38-1.59 189.46-1.59 191.71-4.45 193.96-7.31 193.96-12.41 193.96-17.52 191.69-20.32ZM174.45-12.39Q174.45-18.43 177.38-21.81 180.31-25.2 185.42-25.2 190.52-25.2 193.43-21.79 196.34-18.38 196.34-12.37 196.34-6.37 193.41-2.93L193.41-2.93Q190.47 0.46 185.29 0.46L185.29 0.46Q180.41 0.56 177.38-3.03 174.35-6.62 174.45-12.39L174.45-12.39Z" opacity="1" transform="matrix(1,0,0,1,0,0)" fill="#202046" class="undefined-text-0" data-fill-palette-color="primary" id="text-0"></path></svg></g></svg></g></svg></g></svg></g></svg></g></svg></g></svg></g><g><path d="M245.816 0c68.262 0 123.6 55.338 123.6 123.6 0 68.262-55.338 123.6-123.6 123.6-55.761 0-102.898-36.925-118.293-87.657l2.744 0c15.307 49.263 61.25 85.034 115.549 85.035 66.814 0 120.978-54.164 120.977-120.978 0-66.814-54.164-120.978-120.977-120.978-54.298 0-100.241 35.772-115.549 85.035l-2.744 0c15.395-50.732 62.532-87.657 118.293-87.657z" fill="#2a2a52" stroke="transparent" data-fill-palette-color="tertiary"></path></g></svg></g><defs></defs></svg><rect width="395.52" height="247.2" fill="none" stroke="none" visibility="hidden"></rect></g></svg></g></svg>